{"title":"The Matrix","uid":8864186,"size":2197045959,"categoryP":"video","categoryS":"hd___movies","magnet":"?xt=urn:btih:8f15ac095a27a3a93bfb4729ffecc5d4755d9e17&amp;dn=The+Matrix&amp;tr=udp%3A%2F%2Ftracker.openbittorrent.com%3A80&amp;tr=udp%3A%2F%2Fopen.demonii.com%3A1337&amp;tr=udp%3A%2F%2Ftracker.coppersurfer.tk%3A6969&amp;tr=udp%3A%2F%2Fexodus.desync.com%3A6969","seeders":1,"leechers":0,"uploader":"Prairi3DoG","files":3,"time":1377857312,"description":"General\nComplete name : Matrix.mp4\nFormat : MPEG-4\nFormat profile : Base Media\nCodec ID : isom\nFile size : 2.05 GiB\nDuration : 2h 16mn\nOverall bit rate : 2 150 Kbps\nMovie name : MATRIX\nGenre : Science_Fiction\nWriting application : Lavf54.46.100\n\nVideo\nID : 1\nFormat : MPEG-4 Visual\nFormat settings, BVOP : No\nFormat settings, QPel : No\nFormat settings, GMC : No warppoints\nFormat settings, Matrix : Default (H.263)\nCodec ID : 20\nDuration : 2h 16mn\nBit rate mode : Constant\nBit rate : 1 967 Kbps\nWidth : 720 pixels\nHeight : 404 pixels\nDisplay aspect ratio : 16:9\nFrame rate mode : Constant\nFrame rate : 29.970 fps\nColor space : YUV\nChroma subsampling : 4:2:0\nBit depth : 8 bits\nScan type : Progressive\nCompression mode : Lossy\nBits/(Pixel*Frame) : 0.226\nStream size : 1.87 GiB (91%)\nWriting library : Lavc54.79.100\n\nAudio\nID : 2\nFormat : AAC\nFormat/Info : Advanced Audio Codec\nFormat profile : LC\nCodec ID : 40\nDuration : 2h 16mn\nBit rate mode : Constant\nBit rate : 177 Kbps\nChannel(s) : 2 channels\nOriginal Channel count : 6 channels\nChannel positions : Front: L C R, Side: L R, LFE\nSampling rate : 44.1 KHz\nCompression mode : Lossy\nStream size : 172 MiB (8%)","torrent":{"xt":"urn:btih:8f15ac095a27a3a93bfb4729ffecc5d4755d9e17","amp;dn":"The+Matrix","amp;tr":["udp%3A%2F%2Ftracker.openbittorrent.com%3A80","udp%3A%2F%2Fopen.demonii.com%3A1337","udp%3A%2F%2Ftracker.coppersurfer.tk%3A6969","udp%3A%2F%2Fexodus.desync.com%3A6969"],"infoHash":"8f15ac095a27a3a93bfb4729ffecc5d4755d9e17","infoHashBuffer":{"type":"Buffer","data":[143,21,172,9,90,39,163,169,59,251,71,41,255,236,197,212,117,93,158,23]},"announce":[],"urlList":[]}}